<svg id="Capa_1" enable-background="new 0 0 512 512" height="512" viewBox="0 0 512 512" width="512" xmlns="http://www.w3.org/2000/svg"><g><path d="m464.268 512h-416.536c-16.472 0-29.111-14.612-26.738-30.913l45.876-315.118c1.547-10.623 10.655-18.502 21.39-18.502h335.479c10.735 0 19.844 7.878 21.391 18.502l45.876 315.118c2.373 16.301-10.266 30.913-26.738 30.913z" fill="#aa593d"/><path d="m490.048 474.508c-3.418 10.837-13.538 18.912-25.78 18.912h-416.536c-12.243 0-22.362-8.074-25.78-18.912l-.958 6.58c-2.373 16.3 10.266 30.912 26.738 30.912h416.535c16.472 0 29.111-14.612 26.738-30.913z" fill="#7a402b"/><path d="m332.63 204.101h27.02v-100.451c0-57.153-46.498-103.65-103.65-103.65s-103.649 46.497-103.649 103.65v100.452h27.02v-100.452c0-42.254 34.376-76.63 76.629-76.63s76.63 34.376 76.63 76.63z" fill="#f9ef63"/><path d="m152.351 185.52h27.02v18.581h-27.02z" fill="#f1d333"/><path d="m332.63 185.52h27.02v18.581h-27.02z" fill="#f1d333"/><path d="m165.861 281.937c-16.284 0-29.484-13.2-29.484-29.484v-43.201c0-2.845 2.306-5.151 5.151-5.151h48.665c2.845 0 5.151 2.306 5.151 5.151v43.201c0 16.284-13.2 29.484-29.483 29.484z" fill="#ffc89f"/><path d="m346.14 281.937c-16.283 0-29.484-13.2-29.484-29.484v-43.201c0-2.845 2.306-5.151 5.151-5.151h48.665c2.845 0 5.151 2.306 5.151 5.151v43.201c0 16.284-13.2 29.484-29.483 29.484z" fill="#ffc89f"/><g fill="#f7b081"><path d="m165.861 263.357c-16.284 0-29.484-13.2-29.484-29.484v18.581c0 16.283 13.2 29.484 29.484 29.484 16.283 0 29.484-13.2 29.484-29.484v-18.581c-.001 16.283-13.201 29.484-29.484 29.484z"/><path d="m346.14 263.357c-16.284 0-29.484-13.2-29.484-29.484v18.581c0 16.283 13.2 29.484 29.484 29.484 16.283 0 29.484-13.2 29.484-29.484v-18.581c-.001 16.283-13.201 29.484-29.484 29.484z"/></g></g></svg>