<svg id="Capa_1" enable-background="new 0 0 512 512" height="512" viewBox="0 0 512 512" width="512" xmlns="http://www.w3.org/2000/svg"><g><g><path d="m512 379.66h-30v-277.487c0-20.717-16.854-37.571-37.571-37.571s-37.572 16.854-37.572 37.571v23.815h-30v-23.815c0-37.259 30.313-67.571 67.572-67.571s67.571 30.312 67.571 67.571z" fill="#005284"/></g><g><path d="m30 379.66h-30v-277.487c0-37.259 30.312-67.571 67.571-67.571s67.572 30.312 67.572 67.571v23.815h-30v-23.815c0-20.717-16.854-37.571-37.572-37.571-20.717-.001-37.571 16.854-37.571 37.571z" fill="#0079c1"/></g><g><path d="m121.579 270.728h268.842v30h-268.842z" fill="#0079c1"/></g><g><path d="m255.211 270.728h135.21v30h-135.21z" fill="#005284"/></g><g><path d="m273.311 360.888-.392-.426c-4.3-4.673-10.146-7.237-16.482-7.237-.061 0-.12 0-.18 0-6.406.05-12.282 2.709-16.547 7.488l-22.385-19.973c9.83-11.018 23.936-17.401 38.701-17.515 14.784-.136 28.967 6.053 38.965 16.918l.389.422z" fill="#0079c1"/></g><path d="m294.991 340.143c-9.998-10.865-24.181-17.054-38.965-16.918l.23 29.999h.18c6.336 0 12.183 2.564 16.482 7.237l.392.426 22.068-20.322z" fill="#005284"/><g><g><g><path d="m78.495 477.148c-1.652-.126-3.271-.279-4.858-.459-6.184-.7-9.21-5.502-14.434-6.969-5.238-1.472-12.67.389-17.018-1.778-9.796-4.882-17.431-11.432-23.342-19.215-2.834-3.731-1.754-13.457-3.843-17.706-2.789-5.671-8.474-6.05-10.138-12.445-6.464-24.849-5.299-54.306-3.224-81.683 15.065-64.455 55.497-67.823 125.796-66.453 3.52.069 8.165 5.968 11.836 6.053 9.669-.008 17.531-5.34 25.721-4.406 12.69 1.447 23.647 3.966 33.004 7.378 5.462 1.991 6.803 8.609 11.2 11.173s11.851 1.073 15.238 4.137c61.778 55.904-40.316 189.163-145.938 182.373z" fill="#75e1f7"/><path d="m433.505 477.148c81.584-6.224 81.535-78.524 76.857-140.255-2.586-11.064-5.919-20.328-10.023-28.077-2.342-4.422-20.209 7.069-23.056 3.58-3.604-4.415 7.658-23.545 3.227-26.656-8.264-5.805-17.981-9.528-29.204-11.868-5.633-1.174-20.499 11.942-26.898 11.377-5.722-.505-2.9-14.743-9.245-14.895-12.552-.3-26.333-.031-41.382.319-122.88-.101-123.418 79.754-74.881 140.231 3.169 3.949 20.886-7.422 24.454-3.666 3.385 3.564-7.399 22.265-3.692 25.607 7.397 6.667 15.401 12.845 23.874 18.345 4.157 2.699 21.136-12.456 25.502-10.105 4.65 2.503-3.3 22.487 1.549 24.544 19.914 8.45 41.343 12.906 62.918 11.519z" fill="#4cb8eb"/></g><g fill="#75e1f7"><path d="m415.198 270.359-116.291 140.555c6.18 7.699 13.157 15.084 20.777 21.95l131.554-159.002c-10.643-2.213-22.643-3.182-36.04-3.503z"/><path d="m500.328 308.816c-5.309-10.021-11.901-17.518-19.836-23.088l-136.915 165.483c8.572 5.563 17.623 10.431 27.012 14.414z"/></g></g></g><g fill="#cef2fb"><path d="m42.08 467.874c8.726 4.368 19.17 7.409 31.645 8.815l150.588-182.008c-6.761-6.089-15.476-11.254-26.348-15.216z"/><path d="m18.85 448.725 146.141-176.633c-8.192-.934-17.099-1.426-26.771-1.418-3.676-.085-7.275-.166-10.8-.234l-122.553 148.123c2.91 11.192 7.365 21.449 13.983 30.162z"/></g></g></svg>