<svg id="Layer_1" data-name="Layer 1" xmlns="http://www.w3.org/2000/svg" viewBox="0 0 430 170"><defs><style>.cls-1{fill:#ffce00;}.cls-2{fill:none;stroke:#c4a008;stroke-linecap:round;stroke-linejoin:round;stroke-width:3px;}</style></defs><title>header2</title><rect class="cls-1" width="430" height="170"/><polygon class="cls-2" points="150.35 62.73 107.55 71.56 136.6 104.21 150.35 62.73"/><polygon class="cls-2" points="50.4 113.79 36.65 155.27 79.45 146.44 50.4 113.79"/><polygon class="cls-2" points="210.4 -22.21 196.65 19.27 239.45 10.44 210.4 -22.21"/><polygon class="cls-2" points="67.12 24.65 29.26 46.5 67.12 68.35 67.12 24.65"/><polygon class="cls-2" points="223.12 98.65 185.26 120.5 223.12 142.35 223.12 98.65"/><polygon class="cls-2" points="315.5 62.05 275.01 45.57 280.99 88.87 315.5 62.05"/><polygon class="cls-2" points="330.5 150.05 290.01 133.57 295.99 176.87 330.5 150.05"/><polygon class="cls-2" points="407.92 75.71 374.69 104.11 415.89 118.68 407.92 75.71"/><polygon class="cls-2" points="367.92 -10.29 334.69 18.11 375.89 32.68 367.92 -10.29"/></svg>