<svg height="512" viewBox="0 0 128 128" width="512" xmlns="http://www.w3.org/2000/svg"><g><path d="m28.318 45.259h1.182a13.185 13.185 0 0 1 11.338 6.456 10.732 10.732 0 0 0 9.23 5.255 10.732 10.732 0 0 0 10.625-9.215l.2-1.427s10.427 7.385 18.897 10.642a51.435 51.435 0 0 0 10.282 2.784 18.622 18.622 0 0 1 15.669 15.751c.043.33.08.668.111 1.012h-79.279a4.425 4.425 0 0 1 -4.425-4.425v-10.365a25.063 25.063 0 0 1 6.17-16.468z" fill="#f52a3c"/><path d="m26.573 72.517a.426.426 0 0 1 -.425-.424v-10.366a21.063 21.063 0 0 1 4.066-12.44 9.23 9.23 0 0 1 7.186 4.469 14.725 14.725 0 0 0 25.89-1.034 92.723 92.723 0 0 0 15.064 7.978 55.223 55.223 0 0 0 11.087 3 14.893 14.893 0 0 1 11.384 8.813z" fill="#d61829"/><path d="m105.852 82.741h-81.017l1.738-6.224h79.279z" fill="#eddbe7"/><g fill="#fff5f5"><path d="m66.613 58.721a1.75 1.75 0 0 1 -1.5-2.651l3.033-5.056a1.75 1.75 0 1 1 3 1.8l-3.033 5.057a1.749 1.749 0 0 1 -1.5.85z"/><path d="m72.289 62.057a1.75 1.75 0 0 1 -1.5-2.651l3.034-5.056a1.75 1.75 0 1 1 3 1.8l-3.034 5.057a1.749 1.749 0 0 1 -1.5.85z"/><path d="m90.072 59.754v16.763h15.78q-.047-.516-.111-1.012a18.622 18.622 0 0 0 -15.669-15.751z"/><path d="m24.17 51.928a25.05 25.05 0 0 0 -2.022 9.8v10.364a4.425 4.425 0 0 0 4.425 4.425h8.3c.002-16.862-10.273-24.284-10.703-24.589z"/></g></g></svg>