<svg id="Flat" height="512" viewBox="0 0 512 512" width="512" xmlns="http://www.w3.org/2000/svg"><path d="m112 72h288v64h-288z" fill="#0093b9"/><path d="m24 320 47.37 23.69 16.63 8.31h32.77l44.54-240h-53.31z" fill="#e53d5d"/><path d="m71.37 343.69 16.63 8.31h32.77l44.54-240h-37.77z" fill="#bd2f57"/><path d="m80 376 58.75 13.06 29.25 6.5 28-283.56h-52z" fill="#e53d5d"/><path d="m138.75 389.06 29.25 6.5 28-283.56h-28.08z" fill="#bd2f57"/><path d="m152 416 48.85 6.11 15.15 1.89h24v-312h-56z" fill="#e53d5d"/><path d="m200.85 422.11 15.15 1.89h24v-312h-24.02z" fill="#bd2f57"/><path d="m488 320-47.37 23.69-16.63 8.31h-32.77l-44.54-240h53.31z" fill="#e53d5d"/><path d="m440.63 343.69-16.63 8.31h-32.77l-44.54-240h37.77z" fill="#bd2f57"/><path d="m432 376-58.75 13.06-29.25 6.5-28-283.56h52z" fill="#e53d5d"/><path d="m373.25 389.06-29.25 6.5-28-283.56h28.08z" fill="#bd2f57"/><path d="m360 416-48.85 6.11-15.15 1.89h-24v-312h56z" fill="#e53d5d"/><path d="m311.15 422.11-15.15 1.89h-24v-312h24.02z" fill="#bd2f57"/><path d="m280 112 16 328h-80l16-328z" fill="#e53d5d"/><g fill="#067a98"><path d="m168 72h32v40h-32z"/><path d="m312 72h32v40h-32z"/></g></svg>