<svg height="512" viewBox="0 0 512 512" width="512" xmlns="http://www.w3.org/2000/svg"><g id="flat"><path d="m351.71 110.28-7.06 345.72-.65 32h-64l-.84-32-7.16-272-5.58-8.38-8.53-12.78-1.89-2.84-1.89 2.84-8.53 12.78-5.58 8.38-7.16 272-.84 32h-64l-.65-32-7.06-345.72c-.02-.8-.02-1.6-.02-2.39a119.87 119.87 0 0 1 1.25-17.25v-.01c.42-2.88.95-5.73 1.58-8.57l1.86-8.37 4.96-22.32.53-2.4a31.881 31.881 0 0 1 31.12-24.97h108.86a31.87 31.87 0 0 1 31.12 24.96l5.49 24.73 1.86 8.37q.945 4.26 1.58 8.58a119.335 119.335 0 0 1 1.23 19.64z" fill="#4799cf"/><g fill="#3775a4"><path d="m231.93 57.03-2.41 17.68a8.172 8.172 0 0 1 -.17.86 37.536 37.536 0 0 1 -57.23 22.13l-10.6-7.06v-.01c.42-2.88.95-5.73 1.58-8.57l1.86-8.37 16.04 10.69a21.525 21.525 0 0 0 32.73-12.3l2.34-17.21z"/><path d="m350.48 90.64-10.6 7.06a37.536 37.536 0 0 1 -57.23-22.13 8.172 8.172 0 0 1 -.17-.86l-2.41-17.68 15.86-2.16 2.34 17.21a21.525 21.525 0 0 0 32.73 12.3l16.04-10.69 1.86 8.37q.945 4.26 1.58 8.58z"/><path d="m254.11 162.84-8.53 12.78a7.469 7.469 0 0 1 -2.02-.96l-24-16a8 8 0 0 1 8.88-13.32l24 16a7.753 7.753 0 0 1 1.67 1.5z"/><path d="m292.44 158.66-24 16a7.469 7.469 0 0 1 -2.02.96l-8.53-12.78a7.753 7.753 0 0 1 1.67-1.5l24-16a8 8 0 1 1 8.88 13.32z"/><path d="m296 56v47.93a33.8 33.8 0 0 1 -18.8 30.41l-13.2 6.6v31.06l-8-12-8 12v-115h16v66.06l6.05-3.03a17.9 17.9 0 0 0 9.95-16.1v-47.93z"/><path d="m232.84 456-.84 32h-64l-.65-32z"/><path d="m344.65 456-.65 32h-64l-.84-32z"/><path d="m341.55 48.96a223.608 223.608 0 0 1 -80.63 15.04h-8.62a223.811 223.811 0 0 1 -70.74-11.48l-11.64-1.15.534-2.4a31.879 31.879 0 0 1 31.121-24.97h108.855a31.88 31.88 0 0 1 31.12 24.96z"/></g></g></svg>